<?xml version="1.0" encoding="iso-8859-1"?>
<!-- Generator: Adobe Illustrator 19.0.0, SVG Export Plug-In . SVG Version: 6.00 Build 0)  -->
<svg version="1.1" id="Layer_1" xmlns="http://www.w3.org/2000/svg" xmlns:xlink="http://www.w3.org/1999/xlink" x="0px" y="0px"
	 viewBox="0 0 511.976 511.976" style="enable-background:new 0 0 511.976 511.976;" xml:space="preserve">
<path style="fill:#AAB2BC;" d="M490.649,85.101c-5.891,0-10.671-4.78-10.671-10.655V63.774c0-5.89,4.78-10.671,10.671-10.671
	s10.655,4.781,10.655,10.671v10.672C501.304,80.321,496.54,85.101,490.649,85.101z"/>
<path style="fill:#F6BB42;" d="M287.986,490.639c-5.891,0-10.672-4.78-10.672-10.655V437.33c0-5.906,4.781-10.687,10.672-10.687
	s10.672,4.78,10.672,10.687v42.654C298.658,485.859,293.877,490.639,287.986,490.639z"/>
<path style="fill:#FFCE54;" d="M330.655,490.639h-63.996c-5.891,0-10.671-4.78-10.671-10.655c0-5.906,4.781-10.656,10.671-10.656
	h63.996c5.891,0,10.656,4.75,10.656,10.656C341.311,485.859,336.546,490.639,330.655,490.639z"/>
<path style="fill:#CCD1D9;" d="M501.304,85.101h-45.81c-5.891,0-10.656-4.78-10.656-10.655c0-5.906,4.766-10.672,10.656-10.672
	h45.81c5.891,0,10.672,4.766,10.672,10.672C511.976,80.321,507.195,85.101,501.304,85.101z"/>
<path style="fill:#434A54;" d="M287.986,320.272c-23.522,0-42.662,19.155-42.662,42.686c0,11.062,4.195,30.999,9.984,47.342
	c8.96,25.374,19.647,37.687,32.678,37.687s23.718-12.312,32.687-37.687c5.78-16.343,9.982-36.28,9.982-47.342
	C330.655,339.427,311.516,320.272,287.986,320.272z"/>
<g>
	<path style="fill:#656D78;" d="M478.259,58.9c1.891-2.906,2.234-6.531,0.953-9.75c-0.453-1.141-11.5-27.812-47.154-27.812
		c-3.938,0-8.077,0.344-12.312,1.016c-25.734,4.094-41.608,37.14-59.982,75.419c-13.953,29.046-28.375,59.091-46.857,75.45
		c-11.89,10.53-47.045,32.42-147.064,76.95c-60.404,26.882-116.245,49.35-116.8,49.6c-4.086,1.625-6.75,5.625-6.688,10.031
		s2.828,8.312,6.969,9.843c96.418,35.686,177.891,53.779,242.162,53.779h0.016c67.263,0,117.292-19.656,148.681-58.466
		c40.187-49.663,49.154-129.863,26.655-238.421L478.259,58.9z"/>
	<path style="fill:#656D78;" d="M247.777,349.583l-149.33-35.247c-2.625-0.594-5.382-0.219-7.726,1.125l-85.332,48.59
		c-4.305,2.438-6.352,7.531-4.953,12.28c1.352,4.562,5.531,7.656,10.226,7.656c0.203,0,0.406,0,0.609-0.031l234.663-13.343
		c5.289-0.312,9.554-4.438,10.015-9.719S252.933,350.801,247.777,349.583z"/>
</g>
<path style="fill:#AAB2BC;" d="M472.197,238.533c-22.671-60.17-65.325-72.81-97.121-72.81c-41.655,0-80.543,20.968-90.402,26.702
	c-0.766,0.219-1.516,0.547-2.234,0.953C207.967,235.72,50.621,299.117,49.043,299.773c-4.086,1.625-6.75,5.625-6.688,10.031
	s2.828,8.312,6.969,9.843c96.426,35.686,177.898,53.779,242.146,53.779c0.016,0,0,0,0,0c50.653,0,91.776-11.219,122.229-33.343
	c29.764-21.654,49.591-53.779,58.935-95.473C473.088,242.595,472.931,240.47,472.197,238.533z"/>
<path style="fill:#434A54;" d="M437.308,63.774c0,5.891-4.766,10.672-10.656,10.672s-10.671-4.781-10.671-10.672
	c0-5.89,4.781-10.671,10.671-10.671C432.543,53.103,437.308,57.885,437.308,63.774z"/>
<g>
</g>
<g>
</g>
<g>
</g>
<g>
</g>
<g>
</g>
<g>
</g>
<g>
</g>
<g>
</g>
<g>
</g>
<g>
</g>
<g>
</g>
<g>
</g>
<g>
</g>
<g>
</g>
<g>
</g>
</svg>
